<svg xmlns="http://www.w3.org/2000/svg" viewBox="0 0 192 192">
  <defs>
    <linearGradient id="bg" x1="0" y1="0" x2="1" y2="1">
      <stop offset="0%" stop-color="#fff6b8" />
      <stop offset="100%" stop-color="#ff8fcf" />
    </linearGradient>
  </defs>
  <rect width="192" height="192" rx="48" fill="url(#bg)" />
  <circle cx="56" cy="48" r="12" fill="#ffffff" opacity="0.65" />
  <circle cx="142" cy="54" r="8" fill="#ffffff" opacity="0.6" />
  <path d="M54 70h20l6-10h32l6 10h20v64H54z" fill="#9be8ff" />
  <rect x="60" y="80" width="72" height="54" fill="#9be8ff" />
  <rect x="48" y="88" width="10" height="20" fill="#6f8cff" />
  <rect x="134" y="88" width="10" height="20" fill="#6f8cff" />
  <rect x="74" y="58" width="12" height="12" fill="#6f8cff" />
  <rect x="106" y="58" width="12" height="12" fill="#6f8cff" />
  <rect x="78" y="100" width="8" height="8" fill="#4f3768" />
  <rect x="106" y="100" width="8" height="8" fill="#4f3768" />
  <rect x="90" y="116" width="12" height="6" fill="#ff7a9d" />
  <rect x="72" y="114" width="8" height="6" fill="#ff8fb8" opacity="0.9" />
  <rect x="112" y="114" width="8" height="6" fill="#ff8fb8" opacity="0.9" />
  <rect x="72" y="136" width="12" height="18" fill="#6f8cff" />
  <rect x="108" y="136" width="12" height="18" fill="#6f8cff" />
  <rect x="58" y="144" width="12" height="10" fill="#ff67b4" />
  <rect x="122" y="144" width="12" height="10" fill="#ff67b4" />
</svg>
