<svg xmlns="http://www.w3.org/2000/svg" viewBox="0 0 512 512">
  <defs>
    <linearGradient id="bg" x1="0" y1="0" x2="1" y2="1">
      <stop offset="0%" stop-color="#fff6b8" />
      <stop offset="100%" stop-color="#ff8fcf" />
    </linearGradient>
  </defs>
  <rect width="512" height="512" rx="128" fill="url(#bg)" />
  <circle cx="148" cy="132" r="28" fill="#ffffff" opacity="0.65" />
  <circle cx="382" cy="142" r="18" fill="#ffffff" opacity="0.6" />
  <path d="M146 188h54l18-28h76l18 28h54v170H146z" fill="#9be8ff" />
  <rect x="160" y="214" width="192" height="144" fill="#9be8ff" />
  <rect x="130" y="236" width="24" height="54" fill="#6f8cff" />
  <rect x="358" y="236" width="24" height="54" fill="#6f8cff" />
  <rect x="198" y="152" width="34" height="34" fill="#6f8cff" />
  <rect x="280" y="152" width="34" height="34" fill="#6f8cff" />
  <rect x="214" y="262" width="22" height="22" fill="#4f3768" />
  <rect x="278" y="262" width="22" height="22" fill="#4f3768" />
  <rect x="244" y="304" width="30" height="14" fill="#ff7a9d" />
  <rect x="198" y="298" width="22" height="16" fill="#ff8fb8" opacity="0.9" />
  <rect x="292" y="298" width="22" height="16" fill="#ff8fb8" opacity="0.9" />
  <rect x="198" y="362" width="34" height="60" fill="#6f8cff" />
  <rect x="280" y="362" width="34" height="60" fill="#6f8cff" />
  <rect x="166" y="386" width="28" height="24" fill="#ff67b4" />
  <rect x="318" y="386" width="28" height="24" fill="#ff67b4" />
</svg>
